<?xml version="1.0" encoding="UTF-8" standalone="no"?>
<!DOCTYPE svg PUBLIC "-//W3C//DTD SVG 1.1//EN" "http://www.w3.org/Graphics/SVG/1.1/DTD/svg11.dtd">
<svg width="100%" height="100%" viewBox="0 0 200 300" version="1.1" xmlns="http://www.w3.org/2000/svg" xmlns:xlink="http://www.w3.org/1999/xlink" xml:space="preserve" xmlns:serif="http://www.serif.com/" style="fill-rule:evenodd;clip-rule:evenodd;stroke-linejoin:round;stroke-miterlimit:2;">
    <g id="Artboard1" transform="matrix(0.231784,0,0,0.457335,-48.5688,-7.99512)">
        <rect x="209.543" y="17.482" width="862.871" height="655.974" style="fill:none;"/>
        <clipPath id="_clip1">
            <rect x="209.543" y="17.482" width="862.871" height="655.974"/>
        </clipPath>
        <g clip-path="url(#_clip1)">
            <g id="Illustration" transform="matrix(4.31435,0,0,2.18658,209.543,17.482)">
                <path d="M40.519,170.837L78.344,158.331L143.482,161.637L160.565,177.508L123.07,189.874L63.355,188.089L40.519,170.837Z" style="fill:rgb(62,18,0);"/>
                <path d="M25.343,60.264L100.6,4.772L154.512,44.828L25.343,60.264Z" style="fill:rgb(233,176,130);"/>
                <path d="M157.946,78.518L175.856,71.285L154.674,44.42L74.94,38.565L25.343,60.264L43.425,76.451L157.946,78.518Z" style="fill:rgb(95,56,0);"/>
                <path d="M160.565,74.052L143.482,51.568L143.482,161.637L160.565,177.508L160.565,74.052Z" style="fill:rgb(179,137,0);"/>
                <path d="M143.482,161.637L143.482,51.568L78.344,47.848L78.344,158.331L143.482,161.637Z" style="fill:rgb(233,176,130);"/>
                <path d="M78.344,158.331L78.344,47.848L40.519,65.786L40.519,170.837L78.344,158.331Z" style="fill:rgb(179,137,0);"/>
                <path d="M144.401,178.138L158.156,178.138L155.993,183.817L107.157,215.17L107.157,202.755L144.401,178.138Z" style="fill:rgb(95,56,0);"/>
                <path d="M94.105,202.771L72.492,185.76L60.698,185.76L62.039,190.858L94.105,216.032L94.105,202.771Z" style="fill:rgb(95,56,0);"/>
                <path d="M108.558,182.802L103.736,181.011L95.332,181.011L92.439,182.802L92.439,303.463L108.558,303.463L108.558,182.802Z" style="fill:rgb(95,56,0);"/>
                <g transform="matrix(1,0,0,1,7.10543e-15,47.9654)">
                    <path d="M108.558,182.802L103.736,181.011L95.332,181.011L92.439,182.802L92.439,303.463L108.558,303.463L108.558,182.802Z" style="fill:rgb(179,137,0);"/>
                </g>
                <g transform="matrix(1,0,0,1,7.10543e-15,86.0555)">
                    <path d="M108.558,182.802L103.736,181.011L95.332,181.011L92.439,182.802L92.439,303.463L108.558,303.463L108.558,182.802Z" style="fill:rgb(233,176,130);"/>
                </g>
                <path d="M100,198.192L100,212.388L84.369,165.039L84.369,159.132L100,198.192Z" style="fill:rgb(95,56,0);"/>
                <path d="M94.798,212.388L100,212.388L84.369,165.039L79.255,165.039L94.798,212.388Z" style="fill:rgb(62,18,0);"/>
                <rect x="79.255" y="159.132" width="5.114" height="5.908" style="fill:rgb(179,137,0);"/>
                <path d="M95.082,212.388L95.082,222.532L96.021,223.76L98.08,223.76L99.669,222.532L99.669,212.388L98.08,208.156L96.307,207.276L94.563,207.735L93.913,208.91L95.082,212.388Z" style="fill:rgb(2,0,0);"/>
                <path d="M98.262,221.074L97.338,220.279L95.914,220.833L96.154,222.405L97.486,222.756L98.262,221.074Z" style="fill:rgb(255,232,227);"/>
                <g transform="matrix(0.4828,0.87573,-0.87573,0.4828,243.041,17.1222)">
                    <path d="M98.262,221.074L97.338,220.279L95.914,220.833L96.154,222.405L97.486,222.756L98.262,221.074Z" style="fill:rgb(255,232,227);"/>
                </g>
                <path d="M117.041,152.412L131.854,153.47L131.854,134.601L129.839,131.627L127.447,129.821L121.533,129.37L118.689,131.131L117.041,134.601L117.041,152.412Z" style="fill:rgb(2,0,0);"/>
                <clipPath id="_clip2">
                    <path d="M117.041,152.412L131.854,153.47L131.854,134.601L129.839,131.627L127.447,129.821L121.533,129.37L118.689,131.131L117.041,134.601L117.041,152.412Z"/>
                </clipPath>
                <g clip-path="url(#_clip2)">
                    <path d="M124.978,129.37L126.946,130.585L128.694,132.43L129.581,134.681L129.581,154.548L134.667,154.548L133.629,126.874L123.336,127.687L124.978,129.37Z" style="fill:rgb(62,18,0);"/>
                </g>
                <g transform="matrix(1,0,0,1,-0.334907,1.09467)">
                    <path d="M118.979,149.264L113.068,147.323L117.376,149.787L113.068,150.306L117.376,150.85L113.849,152.673L118.979,151.513L119.263,153.47L119.855,151.726L121.701,151.896L121.133,153.64L122.174,151.896L124.448,152.057L123.93,153.47L125.161,152.057L126.581,152.27L126.345,153.903L127.362,152.27L128.546,152.578L128.806,153.903L129.587,152.578L131.229,152.649L134.755,153.217L131.489,151.797L134.755,151.134L131.679,150.921L134.755,149.761L131.229,150.306L129.848,149.501L128.546,150L127.362,149.501L126.345,150L124.448,149.264L122.821,149.761L121.701,148.905L118.979,149.264Z" style="fill:rgb(255,232,227);"/>
                </g>
                <g transform="matrix(1,0,0,1,7.10543e-15,-63.666)">
                    <path d="M117.041,152.412L131.854,153.47L131.854,134.601L129.839,131.627L127.447,129.821L121.533,129.37L118.689,131.131L117.041,134.601L117.041,152.412Z" style="fill:rgb(10,6,2);"/>
                    <clipPath id="_clip3">
                        <path d="M117.041,152.412L131.854,153.47L131.854,134.601L129.839,131.627L127.447,129.821L121.533,129.37L118.689,131.131L117.041,134.601L117.041,152.412Z"/>
                    </clipPath>
                    <g clip-path="url(#_clip3)">
                        <path d="M124.978,129.37L126.946,130.585L128.694,132.43L129.581,134.681L129.581,154.548L134.667,154.548L133.629,126.874L123.336,127.687L124.978,129.37Z" style="fill:rgb(62,18,0);"/>
                    </g>
                </g>
                <g transform="matrix(1,0,0,1,-0.334907,-62.5713)">
                    <path d="M118.979,149.264L113.068,147.323L117.376,149.787L113.068,150.306L117.376,150.85L113.849,152.673L118.979,151.513L119.263,153.47L119.855,151.726L121.701,151.896L121.133,153.64L122.174,151.896L124.448,152.057L123.93,153.47L125.161,152.057L126.581,152.27L126.345,153.903L127.362,152.27L128.546,152.578L128.806,153.903L129.587,152.578L131.229,152.649L134.755,153.217L131.489,151.797L134.755,151.134L131.679,150.921L134.755,149.761L131.229,150.306L129.848,149.501L128.546,150L127.362,149.501L126.345,150L124.448,149.264L122.821,149.761L121.701,148.905L118.979,149.264Z" style="fill:rgb(255,232,227);"/>
                </g>
                <g transform="matrix(1,0,0,1,-28.3643,-32.8413)">
                    <path d="M117.041,152.412L131.854,153.47L131.854,134.601L129.839,131.627L127.447,129.821L121.533,129.37L118.689,131.131L117.041,134.601L117.041,152.412Z" style="fill:rgb(2,0,0);"/>
                    <clipPath id="_clip4">
                        <path d="M117.041,152.412L131.854,153.47L131.854,134.601L129.839,131.627L127.447,129.821L121.533,129.37L118.689,131.131L117.041,134.601L117.041,152.412Z"/>
                    </clipPath>
                    <g clip-path="url(#_clip4)">
                        <path d="M124.978,129.37L126.946,130.585L128.694,132.43L129.581,134.681L129.581,154.548L134.667,154.548L133.629,126.874L123.336,127.687L124.978,129.37Z" style="fill:rgb(62,18,0);"/>
                    </g>
                </g>
                <g transform="matrix(1,0,0,1,-28.6992,-31.7467)">
                    <path d="M118.979,149.264L113.068,147.323L117.376,149.787L113.068,150.306L117.376,150.85L113.849,152.673L118.979,151.513L119.263,153.47L119.855,151.726L121.701,151.896L121.133,153.64L122.174,151.896L124.448,152.057L123.93,153.47L125.161,152.057L126.581,152.27L126.345,153.903L127.362,152.27L128.546,152.578L128.806,153.903L129.587,152.578L131.229,152.649L134.755,153.217L131.489,151.797L134.755,151.134L131.679,150.921L134.755,149.761L131.229,150.306L129.848,149.501L128.546,150L127.362,149.501L126.345,150L124.448,149.264L122.821,149.761L121.701,148.905L118.979,149.264Z" style="fill:rgb(255,232,227);"/>
                </g>
                <g transform="matrix(1,0,0,1,7.10543e-15,7.25417)">
                    <path d="M71.913,113.807L71.913,95.393L70.399,92.553L68.69,92.093L66.757,92.714L65.249,94.86L64.529,97.807L64.529,116.079L71.913,113.807Z" style="fill:rgb(2,0,0);"/>
                    <clipPath id="_clip5">
                        <path d="M71.913,113.807L71.913,95.393L70.399,92.553L68.69,92.093L66.757,92.714L65.249,94.86L64.529,97.807L64.529,116.079L71.913,113.807Z"/>
                    </clipPath>
                    <g clip-path="url(#_clip5)">
                        <g transform="matrix(1,0,0,1,1.12425,0.828397)">
                            <path d="M62.624,115.251L62.624,90.541L70.789,90.541L70.399,92.553L68.69,92.093L66.367,92.692L65.163,94.48L64.529,97.262L64.529,116.079L62.624,115.251Z" style="fill:rgb(62,18,0);"/>
                        </g>
                    </g>
                </g>
                <path d="M70.411,118.867L74.41,115.577L71.198,119.393L74.046,118.867L71.198,120.272L74.773,121.706L71.913,121.393L70.956,122.157L71.198,123.937L70.138,122.157L69.078,122.635L68.221,123.059L68.221,124.816L67.502,123.059L66.533,123.333L66.109,124.816L65.594,123.333L64.836,123.333L63.748,124.543L64.139,123.059L61.867,123.937L64.139,122.157L62.594,121.393L64.836,121.393L65.414,120.483L66.533,120.926L67.365,120.063L68.383,120.063L69.209,119.115L70.411,118.867Z" style="fill:rgb(255,232,227);"/>
                <g transform="matrix(1,0,0,1,-16.7935,-18.9381)">
                    <path d="M71.913,113.807L71.913,95.393L70.399,92.553L68.69,92.093L66.757,92.714L65.249,94.86L64.529,97.807L64.529,116.079L71.913,113.807Z" style="fill:rgb(2,0,0);"/>
                    <clipPath id="_clip6">
                        <path d="M71.913,113.807L71.913,95.393L70.399,92.553L68.69,92.093L66.757,92.714L65.249,94.86L64.529,97.807L64.529,116.079L71.913,113.807Z"/>
                    </clipPath>
                    <g clip-path="url(#_clip6)">
                        <g transform="matrix(1,0,0,1,1.12425,0.828397)">
                            <path d="M62.624,115.251L62.624,90.541L70.789,90.541L70.399,92.553L68.69,92.093L66.367,92.692L65.163,94.48L64.529,97.262L64.529,116.079L62.624,115.251Z" style="fill:rgb(62,18,0);"/>
                        </g>
                    </g>
                </g>
                <g transform="matrix(1,0,0,1,-16.7935,-26.1923)">
                    <path d="M70.411,118.867L74.41,115.577L71.198,119.393L74.046,118.867L71.198,120.272L74.773,121.706L71.913,121.393L70.956,122.157L71.198,123.937L70.138,122.157L69.078,122.635L68.221,123.059L68.221,124.816L67.502,123.059L66.533,123.333L66.109,124.816L65.594,123.333L64.836,123.333L63.748,124.543L64.139,123.059L61.867,123.937L64.139,122.157L62.594,121.393L64.836,121.393L65.414,120.483L66.533,120.926L67.365,120.063L68.383,120.063L69.209,119.115L70.411,118.867Z" style="fill:rgb(255,232,227);"/>
                </g>
                <g transform="matrix(1,0,0,1,-16.7935,45.1908)">
                    <path d="M71.913,113.807L71.913,95.393L70.399,92.553L68.69,92.093L66.757,92.714L65.249,94.86L64.529,97.807L64.529,116.079L71.913,113.807Z" style="fill:rgb(2,0,0);"/>
                    <clipPath id="_clip7">
                        <path d="M71.913,113.807L71.913,95.393L70.399,92.553L68.69,92.093L66.757,92.714L65.249,94.86L64.529,97.807L64.529,116.079L71.913,113.807Z"/>
                    </clipPath>
                    <g clip-path="url(#_clip7)">
                        <g transform="matrix(1,0,0,1,1.12425,0.828397)">
                            <path d="M62.624,115.251L62.624,90.541L70.789,90.541L70.399,92.553L68.69,92.093L66.367,92.692L65.163,94.48L64.529,97.262L64.529,116.079L62.624,115.251Z" style="fill:rgb(62,18,0);"/>
                        </g>
                    </g>
                </g>
                <g transform="matrix(1,0,0,1,-16.7935,37.9366)">
                    <path d="M70.411,118.867L74.41,115.577L71.198,119.393L74.046,118.867L71.198,120.272L74.773,121.706L71.913,121.393L70.956,122.157L71.198,123.937L70.138,122.157L69.078,122.635L68.221,123.059L68.221,124.816L67.502,123.059L66.533,123.333L66.109,124.816L65.594,123.333L64.836,123.333L63.748,124.543L64.139,123.059L61.867,123.937L64.139,122.157L62.594,121.393L64.836,121.393L65.414,120.483L66.533,120.926L67.365,120.063L68.383,120.063L69.209,119.115L70.411,118.867Z" style="fill:rgb(255,232,227);"/>
                </g>
                <path d="M147.707,156.637L147.707,139.643L148.198,137.355L149.264,136.58L150.113,137.622L150.694,140.021L150.694,162.085L147.707,156.637Z" style="fill:rgb(2,0,0);"/>
                <clipPath id="_clip8">
                    <path d="M147.707,156.637L147.707,139.643L148.198,137.355L149.264,136.58L150.113,137.622L150.694,140.021L150.694,162.085L147.707,156.637Z"/>
                </clipPath>
                <g clip-path="url(#_clip8)">
                    <g transform="matrix(1,0,0,1,-0.959187,0.667407)">
                        <path d="M151.688,135.912L148.228,135.051L148.198,137.355L149.264,136.58L150.113,137.622L150.694,140.021L150.694,162.085L152.122,162.085L151.688,135.912Z" style="fill:rgb(62,18,0);"/>
                    </g>
                </g>
                <path d="M148.201,155.716L149.026,156.119L149.201,156.895L150.357,157.732L150.822,159.132L151.219,159.893L152.024,160.136L151.343,160.726L151.886,161.114L151.219,161.114L151.219,161.672L151.886,161.905L151.091,161.905L150.527,162.324L149.891,161.92L149.426,160.726L148.712,160.555L148.495,159.392L147.89,158.647L148.046,157.965L147.487,157.267L146.618,156.398L147.707,156.398L146.618,155.468L147.487,155.855L147.487,155.111L148.201,155.716Z" style="fill:rgb(255,232,227);"/>
                <g transform="matrix(1,0,0,1,7.89326,-22.5776)">
                    <path d="M147.707,156.637L147.707,139.643L148.198,137.355L149.264,136.58L150.113,137.622L150.694,140.021L150.694,162.085L147.707,156.637Z" style="fill:rgb(2,0,0);"/>
                    <clipPath id="_clip9">
                        <path d="M147.707,156.637L147.707,139.643L148.198,137.355L149.264,136.58L150.113,137.622L150.694,140.021L150.694,162.085L147.707,156.637Z"/>
                    </clipPath>
                    <g clip-path="url(#_clip9)">
                        <g transform="matrix(1,0,0,1,-0.959187,0.667407)">
                            <path d="M151.688,135.912L148.228,135.051L148.198,137.355L149.264,136.58L150.113,137.622L150.694,140.021L150.694,162.085L152.122,162.085L151.688,135.912Z" style="fill:rgb(62,18,0);"/>
                        </g>
                    </g>
                </g>
                <g transform="matrix(1,0,0,1,7.89326,-22.5776)">
                    <path d="M148.201,155.716L149.026,156.119L149.201,156.895L150.357,157.732L150.822,159.132L151.219,159.893L152.024,160.136L151.343,160.726L151.886,161.114L151.219,161.114L151.219,161.672L151.886,161.905L151.091,161.905L150.527,162.324L149.891,161.92L149.426,160.726L148.712,160.555L148.495,159.392L147.89,158.647L148.046,157.965L147.487,157.267L146.618,156.398L147.707,156.398L146.618,155.468L147.487,155.855L147.487,155.111L148.201,155.716Z" style="fill:rgb(255,232,227);"/>
                </g>
                <g transform="matrix(1,0,0,1,7.99361e-15,-59.5351)">
                    <path d="M147.707,156.637L147.707,139.643L148.198,137.355L149.264,136.58L150.113,137.622L150.694,140.021L150.694,162.085L147.707,156.637Z" style="fill:rgb(2,0,0);"/>
                    <clipPath id="_clip10">
                        <path d="M147.707,156.637L147.707,139.643L148.198,137.355L149.264,136.58L150.113,137.622L150.694,140.021L150.694,162.085L147.707,156.637Z"/>
                    </clipPath>
                    <g clip-path="url(#_clip10)">
                        <g transform="matrix(1,0,0,1,-0.959187,0.667407)">
                            <path d="M151.688,135.912L148.228,135.051L148.198,137.355L149.264,136.58L150.113,137.622L150.694,140.021L150.694,162.085L152.122,162.085L151.688,135.912Z" style="fill:rgb(62,18,0);"/>
                        </g>
                    </g>
                </g>
                <g transform="matrix(1,0,0,1,7.99361e-15,-59.5351)">
                    <path d="M148.201,155.716L149.026,156.119L149.201,156.895L150.357,157.732L150.822,159.132L151.219,159.893L152.024,160.136L151.343,160.726L151.886,161.114L151.219,161.114L151.219,161.672L151.886,161.905L151.091,161.905L150.527,162.324L149.891,161.92L149.426,160.726L148.712,160.555L148.495,159.392L147.89,158.647L148.046,157.965L147.487,157.267L146.618,156.398L147.707,156.398L146.618,155.468L147.487,155.855L147.487,155.111L148.201,155.716Z" style="fill:rgb(255,232,227);"/>
                </g>
            </g>
        </g>
    </g>
</svg>
